<svg xmlns="http://www.w3.org/2000/svg" xmlns:xlink="http://www.w3.org/1999/xlink" width="164.39mm" height="28.34mm" viewBox="0 0 465.98 80.34">
  <defs>
    <linearGradient id="a" data-name="Degradado sin nombre 2" x1="467.55" y1="3.07" x2="385.98" y2="69.78" gradientUnits="userSpaceOnUse">
      <stop offset="0" stop-color="#ff9901"/>
      <stop offset="0.11" stop-color="#ff9901"/>
      <stop offset="1" stop-color="#ff4d01"/>
    </linearGradient>
  </defs>
  <g>
    <path d="M399.11,56.86,397.32,67a2.78,2.78,0,0,1-2.74,2.3H384.53l1.79-10.09a2.78,2.78,0,0,1,2.74-2.3Zm4.7-26.53-4.7,26.59h26.58l4.71-26.59ZM393,10.17a7,7,0,0,0-6.86,5.76l-2.55,14.4h20.16l3.57-20.16ZM426,0a2.88,2.88,0,0,0-2.84,2.38l-1.72,9.75h12.13L435.66,0Zm-.42,56.92-4.14,23.42H439a7,7,0,0,0,6.87-5.75L449,56.92Zm8-44.79-3.22,18.2h15.78A2.88,2.88,0,0,0,448.91,28l2.79-15.82ZM455.71,0a2.2,2.2,0,0,0-2.18,1.83l-1.83,10.3H462a2.22,2.22,0,0,0,2.18-1.82L466,0Z" fill="url(#a)"/>
    <path d="M55.83,48.06A16.13,16.13,0,0,1,49,42a16.86,16.86,0,0,1-2.4-9,23,23,0,0,1,3.12-12,21.41,21.41,0,0,1,8.65-8.19A26.41,26.41,0,0,1,70.9,9.9a23.22,23.22,0,0,1,10.34,2.18,16.09,16.09,0,0,1,6.83,6.09,16.82,16.82,0,0,1,2.4,9,23.17,23.17,0,0,1-3.11,12,21.48,21.48,0,0,1-8.66,8.18,26.41,26.41,0,0,1-12.53,2.92,23.08,23.08,0,0,1-10.34-2.18m16.81-9.94a10.24,10.24,0,0,0,3.5-4.3,14.22,14.22,0,0,0,1.21-5.9,7.42,7.42,0,0,0-2-5.45,7.43,7.43,0,0,0-5.54-2A9.09,9.09,0,0,0,64.43,22a10.15,10.15,0,0,0-3.5,4.29,14.22,14.22,0,0,0-1.21,5.9,7,7,0,0,0,7.55,7.5,9.18,9.18,0,0,0,5.37-1.6" fill="#030014"/>
    <path d="M101.18,10.78h17.41a25.45,25.45,0,0,1,10.5,2,15.2,15.2,0,0,1,6.81,5.67,15.78,15.78,0,0,1,2.37,8.71,21.94,21.94,0,0,1-3.09,11.71,20.55,20.55,0,0,1-8.57,7.77,27.66,27.66,0,0,1-12.48,2.73H93.46Zm13.39,28.44a9.86,9.86,0,0,0,7.8-3.17,11.88,11.88,0,0,0,2.78-8.13,6.53,6.53,0,0,0-2.07-5.18,8.78,8.78,0,0,0-6-1.82h-5l-3.63,18.3Z" fill="#030014"/>
    <path d="M168.81,42.64H154.1l-3.86,6.72H136.52L161.1,10.78h12.78L183,49.36H170.08ZM167,33.27l-1.87-9.87-5.68,9.87Z" fill="#030014"/>
    <polygon points="243.54 10.78 235.93 49.36 224.08 49.36 227.5 31.78 216.64 45.89 210.91 45.89 204.96 32 201.49 49.36 189.64 49.36 197.35 10.78 207.94 10.78 216.31 31.28 232.46 10.78 243.54 10.78" fill="#030014"/>
    <path d="M255.88,48.06A16.19,16.19,0,0,1,249.05,42a16.86,16.86,0,0,1-2.4-9,23,23,0,0,1,3.12-12,21.47,21.47,0,0,1,8.65-8.19A26.42,26.42,0,0,1,271,9.9a23.2,23.2,0,0,1,10.33,2.18,16,16,0,0,1,6.83,6.09,16.82,16.82,0,0,1,2.4,9,23.17,23.17,0,0,1-3.11,12,21.51,21.51,0,0,1-8.65,8.18,26.48,26.48,0,0,1-12.54,2.92,23.11,23.11,0,0,1-10.34-2.18m16.81-9.94a10.24,10.24,0,0,0,3.5-4.3,14.22,14.22,0,0,0,1.22-5.9,7,7,0,0,0-7.56-7.49,9.13,9.13,0,0,0-5.37,1.6,10.23,10.23,0,0,0-3.5,4.29,14.22,14.22,0,0,0-1.21,5.9,7,7,0,0,0,7.55,7.5,9.16,9.16,0,0,0,5.37-1.6" fill="#030014"/>
    <path d="M304.19,21.49h-7.67a15.66,15.66,0,0,0-6.92-10.71h35.83l-2.66,10.71h-5.58l-5.05,27.87h-13Z" fill="#030014"/>
    <path d="M336.08,48.06A16.16,16.16,0,0,1,329.24,42a16.85,16.85,0,0,1-2.39-9A23,23,0,0,1,330,21a21.47,21.47,0,0,1,8.65-8.19A26.42,26.42,0,0,1,351.15,9.9a23.17,23.17,0,0,1,10.33,2.18,16.11,16.11,0,0,1,6.84,6.09,16.91,16.91,0,0,1,2.39,9,23.07,23.07,0,0,1-3.11,12A21.51,21.51,0,0,1,359,47.32a26.42,26.42,0,0,1-12.54,2.92,23,23,0,0,1-10.33-2.18m16.81-9.94a10.32,10.32,0,0,0,3.5-4.3,14.38,14.38,0,0,0,1.21-5.9,7.42,7.42,0,0,0-2-5.45,7.44,7.44,0,0,0-5.54-2,9.14,9.14,0,0,0-5.38,1.6,10.13,10.13,0,0,0-3.49,4.29,14.22,14.22,0,0,0-1.22,5.9,7,7,0,0,0,7.55,7.5,9.21,9.21,0,0,0,5.38-1.6" fill="#030014"/>
    <path d="M38.33,32.41a15,15,0,0,0,2.73-8.95,11.22,11.22,0,0,0-4.22-9.34Q32.63,10.78,25,10.78H7.72l-2,10H23q4.84,0,4.85,3.92A4.84,4.84,0,0,1,26.4,28.5a6,6,0,0,1-4.19,1.35H3.9L0,49.36H13l1.92-9.7h3.2l5.46,9.7h13.5L30.64,38.12a16.11,16.11,0,0,0,7.69-5.71" fill="#030014"/>
    <polygon points="159.26 56.39 156.77 68.93 154.05 68.93 155.52 61.48 150.74 67.6 149.45 67.6 146.87 61.41 145.37 68.93 142.64 68.93 145.15 56.39 147.51 56.39 150.65 64.2 156.77 56.39 159.26 56.39" fill="#ff8001"/>
    <path d="M167,68.53A4,4,0,0,1,165.3,67a4.25,4.25,0,0,1-.6-2.27,5.53,5.53,0,0,1,.75-2.86,5.43,5.43,0,0,1,2.08-2,6,6,0,0,1,3-.73,5.71,5.71,0,0,1,2.56.54,3.94,3.94,0,0,1,1.69,1.51,4.22,4.22,0,0,1,.6,2.26,5.53,5.53,0,0,1-.74,2.87,5.3,5.3,0,0,1-2.08,2,6.22,6.22,0,0,1-3,.73,5.76,5.76,0,0,1-2.55-.54m4.18-2.17a2.81,2.81,0,0,0,1-1.12,3.64,3.64,0,0,0,.36-1.65A2.11,2.11,0,0,0,172,62a2.18,2.18,0,0,0-1.61-.57A2.66,2.66,0,0,0,167.89,63a3.64,3.64,0,0,0-.36,1.65,2.11,2.11,0,0,0,.58,1.56,2.22,2.22,0,0,0,1.62.57,2.75,2.75,0,0,0,1.45-.4" fill="#ff8001"/>
    <path d="M185,65.52a1.45,1.45,0,0,0,0,.4q0,.93,1,.93a2.17,2.17,0,0,0,1.13-.34l.41,2a4.54,4.54,0,0,1-2.4.57,3.2,3.2,0,0,1-2.18-.72,2.46,2.46,0,0,1-.83-2,4.63,4.63,0,0,1,.09-.84l.77-3.88h-1.48l.43-2.15h1.48l.47-2.35h2.79l-.46,2.35h2.4l-.43,2.15h-2.4Z" fill="#ff8001"/>
    <path d="M196.11,68.53a4,4,0,0,1-1.7-1.51,4.25,4.25,0,0,1-.6-2.27,5.42,5.42,0,0,1,2.83-4.87,6,6,0,0,1,3-.73,5.71,5.71,0,0,1,2.56.54,4,4,0,0,1,1.7,1.51,4.22,4.22,0,0,1,.6,2.26,5.54,5.54,0,0,1-.75,2.87,5.3,5.3,0,0,1-2.08,2,6.16,6.16,0,0,1-3,.73,5.77,5.77,0,0,1-2.56-.54m4.18-2.17a2.81,2.81,0,0,0,1-1.12,3.64,3.64,0,0,0,.36-1.65,2.11,2.11,0,0,0-.58-1.56,2.18,2.18,0,0,0-1.61-.57A2.66,2.66,0,0,0,197,63a3.64,3.64,0,0,0-.36,1.65,2.15,2.15,0,0,0,.58,1.56,2.22,2.22,0,0,0,1.62.57,2.72,2.72,0,0,0,1.45-.4" fill="#ff8001"/>
    <path d="M216.15,59.45a6.48,6.48,0,0,1,2.08-.3l-.5,2.58-.64,0a3.06,3.06,0,0,0-2,.63,3.27,3.27,0,0,0-1,1.95l-.94,4.66H210.3l1.92-9.64h2.65l-.24,1.15a3.69,3.69,0,0,1,1.52-1" fill="#ff8001"/>
    <path d="M225.3,68.53A4,4,0,0,1,223.59,67a4.25,4.25,0,0,1-.6-2.27,5.53,5.53,0,0,1,.76-2.86,5.39,5.39,0,0,1,2.09-2,6.23,6.23,0,0,1,3-.73,5.37,5.37,0,0,1,2.66.63,4.09,4.09,0,0,1,1.67,1.8l-2.36,1.19a2.19,2.19,0,0,0-2.15-1.31,2.76,2.76,0,0,0-1.48.4,2.84,2.84,0,0,0-1,1.12,3.59,3.59,0,0,0-.37,1.63,2.09,2.09,0,0,0,.6,1.57,2.22,2.22,0,0,0,1.64.58,2.65,2.65,0,0,0,2.37-1.29l2.06,1.29a4.76,4.76,0,0,1-1.91,1.7,6.35,6.35,0,0,1-5.28.07" fill="#ff8001"/>
    <path d="M249.69,59.29l-6.41,10.28a7.46,7.46,0,0,1-2,2.33,4.28,4.28,0,0,1-2.4.64,4.61,4.61,0,0,1-1.47-.23,2.92,2.92,0,0,1-1.14-.61l1.29-2a2.21,2.21,0,0,0,1.54.59A1.59,1.59,0,0,0,240,70a3.17,3.17,0,0,0,.81-.92l.09-.16-2.22-9.65h2.79l1.43,6.56,4-6.56Z" fill="#ff8001"/>
    <path d="M256.1,68.53A4,4,0,0,1,254.39,67a4.25,4.25,0,0,1-.6-2.27,5.53,5.53,0,0,1,.75-2.86,5.35,5.35,0,0,1,2.1-2,6.16,6.16,0,0,1,3-.73,5.31,5.31,0,0,1,2.66.63,4.06,4.06,0,0,1,1.68,1.8l-2.37,1.19a2.19,2.19,0,0,0-2.15-1.31,2.7,2.7,0,0,0-1.47.4A2.79,2.79,0,0,0,257,63a3.59,3.59,0,0,0-.36,1.63,2.08,2.08,0,0,0,.59,1.57,2.23,2.23,0,0,0,1.65.58,2.64,2.64,0,0,0,2.36-1.29l2.06,1.29a4.7,4.7,0,0,1-1.91,1.7,6.33,6.33,0,0,1-5.27.07" fill="#ff8001"/>
    <polygon points="271.73 55.64 274.52 55.64 271.87 68.93 269.08 68.93 271.73 55.64" fill="#ff8001"/>
    <path d="M289.72,64.86h-7.38c.1,1.31.93,2,2.49,2a4.43,4.43,0,0,0,1.41-.23,3.71,3.71,0,0,0,1.17-.66l1.17,1.84a5.74,5.74,0,0,1-1.85,1,7.46,7.46,0,0,1-2.18.32,6.08,6.08,0,0,1-2.61-.53A3.91,3.91,0,0,1,280.22,67a4.31,4.31,0,0,1-.6-2.28,5.65,5.65,0,0,1,.73-2.87,5.25,5.25,0,0,1,2-2,5.93,5.93,0,0,1,2.94-.72,5.23,5.23,0,0,1,2.42.52,3.76,3.76,0,0,1,1.6,1.48,4.43,4.43,0,0,1,.56,2.24,7.39,7.39,0,0,1-.16,1.47m-6.21-3.09a2.8,2.8,0,0,0-1,1.46h4.78a1.86,1.86,0,0,0-.58-1.46,2.26,2.26,0,0,0-1.57-.53,2.64,2.64,0,0,0-1.66.53" fill="#ff8001"/>
    <path d="M309,65.52a1.45,1.45,0,0,0,0,.4q0,.93,1,.93a2.17,2.17,0,0,0,1.13-.34l.41,2a4.54,4.54,0,0,1-2.4.57,3.2,3.2,0,0,1-2.18-.72,2.45,2.45,0,0,1-.82-2,4.63,4.63,0,0,1,.09-.84l.77-3.88h-1.49l.43-2.15h1.49l.46-2.35h2.8l-.47,2.35h2.4l-.43,2.15h-2.4Z" fill="#ff8001"/>
    <path d="M329.24,59.29l-6.41,10.28a7.46,7.46,0,0,1-2,2.33,4.22,4.22,0,0,1-2.39.64,4.61,4.61,0,0,1-1.47-.23,2.92,2.92,0,0,1-1.14-.61l1.29-2a2.21,2.21,0,0,0,1.54.59,1.59,1.59,0,0,0,.93-.27,3,3,0,0,0,.8-.92l.09-.16-2.22-9.65H321l1.43,6.56,4-6.56Z" fill="#ff8001"/>
    <path d="M339.27,59.45a6.54,6.54,0,0,1,2.09-.3l-.5,2.58-.65,0a3.1,3.1,0,0,0-2,.63,3.27,3.27,0,0,0-1,1.95l-.93,4.66h-2.79l1.91-9.64H338l-.23,1.15a3.65,3.65,0,0,1,1.51-1" fill="#ff8001"/>
    <path d="M356.24,64.86h-7.38c.09,1.31.92,2,2.49,2a4.33,4.33,0,0,0,1.4-.23,3.87,3.87,0,0,0,1.18-.66l1.16,1.84a5.69,5.69,0,0,1-1.84,1,7.53,7.53,0,0,1-2.19.32,6,6,0,0,1-2.6-.53A3.91,3.91,0,0,1,346.74,67a4.31,4.31,0,0,1-.6-2.28,5.74,5.74,0,0,1,.72-2.87,5.34,5.34,0,0,1,2-2,5.92,5.92,0,0,1,2.93-.72,5.28,5.28,0,0,1,2.43.52,3.68,3.68,0,0,1,1.59,1.48,4.34,4.34,0,0,1,.57,2.24,8.22,8.22,0,0,1-.16,1.47M350,61.77a2.85,2.85,0,0,0-1,1.46h4.78a1.9,1.9,0,0,0-.58-1.46,2.28,2.28,0,0,0-1.57-.53,2.67,2.67,0,0,0-1.67.53" fill="#ff8001"/>
    <path d="M362.8,68.79a5,5,0,0,1-1.75-.72l1.07-2a5.39,5.39,0,0,0,1.53.67,7.13,7.13,0,0,0,1.82.25,3.06,3.06,0,0,0,1.42-.25.74.74,0,0,0,.46-.69.53.53,0,0,0-.41-.51,7.31,7.31,0,0,0-1.32-.34,14,14,0,0,1-1.71-.43,2.85,2.85,0,0,1-1.17-.77,2,2,0,0,1-.49-1.44A2.84,2.84,0,0,1,363.58,60a6.24,6.24,0,0,1,3.5-.89,9.12,9.12,0,0,1,2,.21,6.16,6.16,0,0,1,1.61.59l-1,2a5.3,5.3,0,0,0-2.85-.74,2.88,2.88,0,0,0-1.39.27.78.78,0,0,0-.47.68.57.57,0,0,0,.41.55,8.53,8.53,0,0,0,1.38.36,16.72,16.72,0,0,1,1.67.42,2.71,2.71,0,0,1,1.14.75A2,2,0,0,1,370,65.7a2.79,2.79,0,0,1-1.35,2.49,6.29,6.29,0,0,1-3.5.88,9.5,9.5,0,0,1-2.37-.28" fill="#ff8001"/>
    <polygon points="159.26 56.39 156.77 68.93 154.05 68.93 155.52 61.48 150.74 67.6 149.45 67.6 146.87 61.41 145.37 68.93 142.64 68.93 145.15 56.39 147.51 56.39 150.65 64.2 156.77 56.39 159.26 56.39" fill="#ff8001"/>
    <path d="M167,68.53A4,4,0,0,1,165.3,67a4.25,4.25,0,0,1-.6-2.27,5.53,5.53,0,0,1,.75-2.86,5.43,5.43,0,0,1,2.08-2,6,6,0,0,1,3-.73,5.71,5.71,0,0,1,2.56.54,3.94,3.94,0,0,1,1.69,1.51,4.22,4.22,0,0,1,.6,2.26,5.53,5.53,0,0,1-.74,2.87,5.3,5.3,0,0,1-2.08,2,6.22,6.22,0,0,1-3,.73,5.76,5.76,0,0,1-2.55-.54m4.18-2.17a2.81,2.81,0,0,0,1-1.12,3.64,3.64,0,0,0,.36-1.65A2.11,2.11,0,0,0,172,62a2.18,2.18,0,0,0-1.61-.57A2.66,2.66,0,0,0,167.89,63a3.64,3.64,0,0,0-.36,1.65,2.11,2.11,0,0,0,.58,1.56,2.22,2.22,0,0,0,1.62.57,2.75,2.75,0,0,0,1.45-.4" fill="#ff8001"/>
    <path d="M185,65.52a1.45,1.45,0,0,0,0,.4q0,.93,1,.93a2.17,2.17,0,0,0,1.13-.34l.41,2a4.54,4.54,0,0,1-2.4.57,3.2,3.2,0,0,1-2.18-.72,2.46,2.46,0,0,1-.83-2,4.63,4.63,0,0,1,.09-.84l.77-3.88h-1.48l.43-2.15h1.48l.47-2.35h2.79l-.46,2.35h2.4l-.43,2.15h-2.4Z" fill="#ff8001"/>
    <path d="M196.11,68.53a4,4,0,0,1-1.7-1.51,4.25,4.25,0,0,1-.6-2.27,5.42,5.42,0,0,1,2.83-4.87,6,6,0,0,1,3-.73,5.71,5.71,0,0,1,2.56.54,4,4,0,0,1,1.7,1.51,4.22,4.22,0,0,1,.6,2.26,5.54,5.54,0,0,1-.75,2.87,5.3,5.3,0,0,1-2.08,2,6.16,6.16,0,0,1-3,.73,5.77,5.77,0,0,1-2.56-.54m4.18-2.17a2.81,2.81,0,0,0,1-1.12,3.64,3.64,0,0,0,.36-1.65,2.11,2.11,0,0,0-.58-1.56,2.18,2.18,0,0,0-1.61-.57A2.66,2.66,0,0,0,197,63a3.64,3.64,0,0,0-.36,1.65,2.15,2.15,0,0,0,.58,1.56,2.22,2.22,0,0,0,1.62.57,2.72,2.72,0,0,0,1.45-.4" fill="#ff8001"/>
    <path d="M216.15,59.45a6.48,6.48,0,0,1,2.08-.3l-.5,2.58-.64,0a3.06,3.06,0,0,0-2,.63,3.27,3.27,0,0,0-1,1.95l-.94,4.66H210.3l1.92-9.64h2.65l-.24,1.15a3.69,3.69,0,0,1,1.52-1" fill="#ff8001"/>
    <path d="M225.3,68.53A4,4,0,0,1,223.59,67a4.25,4.25,0,0,1-.6-2.27,5.53,5.53,0,0,1,.76-2.86,5.39,5.39,0,0,1,2.09-2,6.23,6.23,0,0,1,3-.73,5.37,5.37,0,0,1,2.66.63,4.09,4.09,0,0,1,1.67,1.8l-2.36,1.19a2.19,2.19,0,0,0-2.15-1.31,2.76,2.76,0,0,0-1.48.4,2.84,2.84,0,0,0-1,1.12,3.59,3.59,0,0,0-.37,1.63,2.09,2.09,0,0,0,.6,1.57,2.22,2.22,0,0,0,1.64.58,2.65,2.65,0,0,0,2.37-1.29l2.06,1.29a4.76,4.76,0,0,1-1.91,1.7,6.35,6.35,0,0,1-5.28.07" fill="#ff8001"/>
    <path d="M249.69,59.29l-6.41,10.28a7.46,7.46,0,0,1-2,2.33,4.28,4.28,0,0,1-2.4.64,4.61,4.61,0,0,1-1.47-.23,2.92,2.92,0,0,1-1.14-.61l1.29-2a2.21,2.21,0,0,0,1.54.59A1.59,1.59,0,0,0,240,70a3.17,3.17,0,0,0,.81-.92l.09-.16-2.22-9.65h2.79l1.43,6.56,4-6.56Z" fill="#ff8001"/>
    <path d="M256.1,68.53A4,4,0,0,1,254.39,67a4.25,4.25,0,0,1-.6-2.27,5.53,5.53,0,0,1,.75-2.86,5.35,5.35,0,0,1,2.1-2,6.16,6.16,0,0,1,3-.73,5.31,5.31,0,0,1,2.66.63,4.06,4.06,0,0,1,1.68,1.8l-2.37,1.19a2.19,2.19,0,0,0-2.15-1.31,2.7,2.7,0,0,0-1.47.4A2.79,2.79,0,0,0,257,63a3.59,3.59,0,0,0-.36,1.63,2.08,2.08,0,0,0,.59,1.57,2.23,2.23,0,0,0,1.65.58,2.64,2.64,0,0,0,2.36-1.29l2.06,1.29a4.7,4.7,0,0,1-1.91,1.7,6.33,6.33,0,0,1-5.27.07" fill="#ff8001"/>
    <polygon points="271.73 55.64 274.52 55.64 271.87 68.93 269.08 68.93 271.73 55.64" fill="#ff8001"/>
    <path d="M289.72,64.86h-7.38c.1,1.31.93,2,2.49,2a4.43,4.43,0,0,0,1.41-.23,3.71,3.71,0,0,0,1.17-.66l1.17,1.84a5.74,5.74,0,0,1-1.85,1,7.46,7.46,0,0,1-2.18.32,6.08,6.08,0,0,1-2.61-.53A3.91,3.91,0,0,1,280.22,67a4.31,4.31,0,0,1-.6-2.28,5.65,5.65,0,0,1,.73-2.87,5.25,5.25,0,0,1,2-2,5.93,5.93,0,0,1,2.94-.72,5.23,5.23,0,0,1,2.42.52,3.76,3.76,0,0,1,1.6,1.48,4.43,4.43,0,0,1,.56,2.24,7.39,7.39,0,0,1-.16,1.47m-6.21-3.09a2.8,2.8,0,0,0-1,1.46h4.78a1.86,1.86,0,0,0-.58-1.46,2.26,2.26,0,0,0-1.57-.53,2.64,2.64,0,0,0-1.66.53" fill="#ff8001"/>
    <path d="M309,65.52a1.45,1.45,0,0,0,0,.4q0,.93,1,.93a2.17,2.17,0,0,0,1.13-.34l.41,2a4.54,4.54,0,0,1-2.4.57,3.2,3.2,0,0,1-2.18-.72,2.45,2.45,0,0,1-.82-2,4.63,4.63,0,0,1,.09-.84l.77-3.88h-1.49l.43-2.15h1.49l.46-2.35h2.8l-.47,2.35h2.4l-.43,2.15h-2.4Z" fill="#ff8001"/>
    <path d="M329.24,59.29l-6.41,10.28a7.46,7.46,0,0,1-2,2.33,4.22,4.22,0,0,1-2.39.64,4.61,4.61,0,0,1-1.47-.23,2.92,2.92,0,0,1-1.14-.61l1.29-2a2.21,2.21,0,0,0,1.54.59,1.59,1.59,0,0,0,.93-.27,3,3,0,0,0,.8-.92l.09-.16-2.22-9.65H321l1.43,6.56,4-6.56Z" fill="#ff8001"/>
    <path d="M339.27,59.45a6.54,6.54,0,0,1,2.09-.3l-.5,2.58-.65,0a3.1,3.1,0,0,0-2,.63,3.27,3.27,0,0,0-1,1.95l-.93,4.66h-2.79l1.91-9.64H338l-.23,1.15a3.65,3.65,0,0,1,1.51-1" fill="#ff8001"/>
    <path d="M356.24,64.86h-7.38c.09,1.31.92,2,2.49,2a4.33,4.33,0,0,0,1.4-.23,3.87,3.87,0,0,0,1.18-.66l1.16,1.84a5.69,5.69,0,0,1-1.84,1,7.53,7.53,0,0,1-2.19.32,6,6,0,0,1-2.6-.53A3.91,3.91,0,0,1,346.74,67a4.31,4.31,0,0,1-.6-2.28,5.74,5.74,0,0,1,.72-2.87,5.34,5.34,0,0,1,2-2,5.92,5.92,0,0,1,2.93-.72,5.28,5.28,0,0,1,2.43.52,3.68,3.68,0,0,1,1.59,1.48,4.34,4.34,0,0,1,.57,2.24,8.22,8.22,0,0,1-.16,1.47M350,61.77a2.85,2.85,0,0,0-1,1.46h4.78a1.9,1.9,0,0,0-.58-1.46,2.28,2.28,0,0,0-1.57-.53,2.67,2.67,0,0,0-1.67.53" fill="#ff8001"/>
    <path d="M362.8,68.79a5,5,0,0,1-1.75-.72l1.07-2a5.39,5.39,0,0,0,1.53.67,7.13,7.13,0,0,0,1.82.25,3.06,3.06,0,0,0,1.42-.25.74.74,0,0,0,.46-.69.53.53,0,0,0-.41-.51,7.31,7.31,0,0,0-1.32-.34,14,14,0,0,1-1.71-.43,2.85,2.85,0,0,1-1.17-.77,2,2,0,0,1-.49-1.44A2.84,2.84,0,0,1,363.58,60a6.24,6.24,0,0,1,3.5-.89,9.12,9.12,0,0,1,2,.21,6.16,6.16,0,0,1,1.61.59l-1,2a5.3,5.3,0,0,0-2.85-.74,2.88,2.88,0,0,0-1.39.27.78.78,0,0,0-.47.68.57.57,0,0,0,.41.55,8.53,8.53,0,0,0,1.38.36,16.72,16.72,0,0,1,1.67.42,2.71,2.71,0,0,1,1.14.75A2,2,0,0,1,370,65.7a2.79,2.79,0,0,1-1.35,2.49,6.29,6.29,0,0,1-3.5.88,9.5,9.5,0,0,1-2.37-.28" fill="#ff8001"/>
  </g>
</svg>
