<?xml version="1.0" encoding="UTF-8"?>
<svg id="Capa_2" data-name="Capa 2" xmlns="http://www.w3.org/2000/svg" viewBox="0 0 330.31 99.76">
  <defs>
    <style>
      .cls-1 {
        fill: #149a3c;
      }

      .cls-2 {
        fill: #1d1d1b;
      }
    </style>
  </defs>
  <g id="Capa_1-2" data-name="Capa 1">
    <g>
      <path class="cls-1" d="m73.19,53.53h19.51l-9.76-15.37-9.76,15.37Zm24.19,7.35h-28.86l-4.07,6.43h-9.14l23.73-37.1h7.88l23.73,37.1h-9.15l-4.11-6.43Z"/>
      <polygon class="cls-1" points="154.65 67.31 122.64 41.01 122.64 67.31 115.22 67.31 115.22 30.21 122.28 30.21 154.24 56.51 154.24 30.21 161.71 30.21 161.71 67.31 154.65 67.31"/>
      <polygon class="cls-1" points="171.42 30.21 214.96 30.21 214.96 38.63 178.84 38.63 178.84 45.05 210.49 45.05 210.49 52.47 178.84 52.47 178.84 58.9 214.96 58.9 214.96 67.32 171.42 67.32 171.42 30.21"/>
      <polygon class="cls-1" points="275.48 30.21 275.48 67.32 268.07 67.32 268.07 43.07 249.11 66.39 230.11 43.07 230.11 67.32 222.69 67.32 222.69 30.21 229.8 30.21 249.11 53.73 268.42 30.21 275.48 30.21"/>
      <g>
        <path class="cls-2" d="m302.36,86.8c-6.53,0-12.09-4.19-14.14-10.02,9.24-2.63,16.52-9.88,19.18-19.1,5.79,2.07,9.95,7.62,9.95,14.12,0,8.27-6.73,15-14.99,15m-14.15-63.79h0c2.05-5.84,7.62-10.04,14.15-10.04,8.27,0,14.99,6.73,14.99,14.99,0,6.5-4.16,12.05-9.96,14.12-2.67-9.21-9.95-16.45-19.18-19.07m31.5,26.87c6.46-5.12,10.6-13.04,10.6-21.92C330.31,12.52,317.8.01,302.36.01c-8.82,0-16.68,4.09-21.81,10.47v24.42c8.27,0,14.99,6.73,14.99,15s-6.73,14.99-14.99,14.99v24.4c5.12,6.38,12.98,10.47,21.81,10.47,15.44,0,27.95-12.51,27.95-27.96,0-8.88-4.14-16.8-10.6-21.92"/>
        <path class="cls-2" d="m27.95,86.79c-8.27,0-14.99-6.73-14.99-14.99,0-6.5,4.16-12.05,9.95-14.12,2.67,9.22,9.95,16.47,19.18,19.09-2.06,5.83-7.62,10.02-14.14,10.02m0-73.83c6.53,0,12.1,4.2,14.15,10.04-9.23,2.63-16.51,9.87-19.18,19.08-5.8-2.07-9.96-7.62-9.96-14.12,0-8.27,6.73-14.99,14.99-14.99m0-12.96C12.51,0,0,12.51,0,27.95c0,8.89,4.14,16.8,10.6,21.92C4.14,54.99,0,62.91,0,71.79c0,15.44,12.51,27.95,27.95,27.95,8.82,0,16.68-4.09,21.81-10.47v-24.4c-.39,0-.77-.02-1.15-.05-.06,0-.12,0-.18-.01-.38-.04-.75-.08-1.12-.14-.03,0-.06,0-.08-.01-.79-.14-1.56-.33-2.3-.59-4.34-1.49-7.79-4.91-9.31-9.24-.27-.75-.47-1.53-.61-2.34,0-.04-.02-.08-.02-.12-.06-.38-.11-.75-.15-1.14,0-.06,0-.12-.02-.18-.03-.39-.05-.78-.05-1.18s.02-.79.05-1.18c0-.06,0-.12.01-.18.04-.38.08-.76.15-1.14,0-.04.02-.09.03-.13.14-.81.35-1.59.61-2.34,1.53-4.33,4.99-7.75,9.34-9.23.74-.25,1.51-.45,2.3-.58.02,0,.05,0,.07,0,.37-.06.74-.11,1.12-.14.06,0,.13,0,.19-.01.38-.03.75-.05,1.14-.05V10.47C44.63,4.09,36.77,0,27.95,0"/>
      </g>
    </g>
  </g>
</svg>