<svg xmlns="http://www.w3.org/2000/svg" viewBox="0 0 1027.23 589.67"><defs><style>.cls-1{fill:#cfcfcf;}.cls-2{fill:#252525;}</style></defs><g id="Capa_2" data-name="Capa 2"><g id="Layer_1" data-name="Layer 1"><path class="cls-1" d="M555.07,0H409.58L212.25,589.67H748.53ZM480.39,184.18l91.7,288.64H390.24Z"/><path class="cls-2" d="M0,401.91V227H85.44q17.73,0,31.35,6.87A52,52,0,0,1,138,253q7.62,12.24,7.62,28.23a48.86,48.86,0,0,1-9.24,29.47,55.34,55.34,0,0,1-24.73,19l38.72,72.2H109.92L75.69,335H36.22v67Zm36.22-96.68h46q12.24,0,19.61-6.5t7.37-17q0-10.49-7.37-17t-19.61-6.5h-46Z"/><path class="cls-2" d="M228.33,404.4a69.72,69.72,0,0,1-35.23-9,68.32,68.32,0,0,1-25-24.23A64.72,64.72,0,0,1,158.88,337,66.05,66.05,0,0,1,168,302.6a66.75,66.75,0,0,1,25-24.35,73.92,73.92,0,0,1,70.7,0,66.82,66.82,0,0,1,25,24.35A66.05,66.05,0,0,1,297.78,337a65.37,65.37,0,0,1-9.12,34.23,67.38,67.38,0,0,1-24.86,24.23Q248.07,404.41,228.33,404.4Zm0-29.72a34.32,34.32,0,0,0,18.36-5,37.17,37.17,0,0,0,13-13.61,40.18,40.18,0,0,0,0-38.35,38.56,38.56,0,0,0-13-13.62,35.26,35.26,0,0,0-36.6,0,37.14,37.14,0,0,0-13,13.62,41.15,41.15,0,0,0,0,38.35,35.85,35.85,0,0,0,13,13.61A34.55,34.55,0,0,0,228.33,374.68Z"/><path class="cls-2" d="M384,403.66a63.76,63.76,0,0,1-33.47-9,67.52,67.52,0,0,1-23.86-24.1,66.86,66.86,0,0,1,24.11-91.69,69.61,69.61,0,0,1,53-6.24,63.76,63.76,0,0,1,16.74,7.62V227l34.22-5.75V401.91H420.94V391.16A58.38,58.38,0,0,1,384,403.66Zm5.5-29.23a46.48,46.48,0,0,0,17.36-3.13,36.7,36.7,0,0,0,13.62-9.36V311.22a41.26,41.26,0,0,0-13.74-9A45.52,45.52,0,0,0,389.46,299a38.72,38.72,0,0,0-19.36,4.87,35.93,35.93,0,0,0-13.62,13.49,37.94,37.94,0,0,0-5,19.36,36.84,36.84,0,0,0,18.61,32.73A37.89,37.89,0,0,0,389.46,374.43Z"/><path class="cls-2" d="M527.86,404.15q-14,0-24.74-5.12a40.48,40.48,0,0,1-16.73-14.11,36.51,36.51,0,0,1-6-20.74q0-18.74,14.12-29.1t38.84-10.37a96,96,0,0,1,32,5.25v-9.49q0-11.25-7-17t-20.48-5.75a66.78,66.78,0,0,0-17.74,2.63,163.8,163.8,0,0,0-22,8.12l-12.49-25.24a174.69,174.69,0,0,1,29.6-10.49,117.58,117.58,0,0,1,28.36-3.5q26.22,0,40.84,12.62t14.61,35.6v84.44H565.33v-9.25a54.35,54.35,0,0,1-17.24,8.75A70.84,70.84,0,0,1,527.86,404.15Zm-15-40.71a13.6,13.6,0,0,0,6.49,11.86q6.5,4.38,17.24,4.37a55.62,55.62,0,0,0,15.74-2.12,41,41,0,0,0,13-6.37v-19a68.69,68.69,0,0,0-13-3.74,79,79,0,0,0-14.49-1.25q-11.75,0-18.36,4.37T512.87,363.44Z"/><path class="cls-2" d="M630,452.87V271.75h33.72v10.74a58.43,58.43,0,0,1,37-12.49,63.76,63.76,0,0,1,33.47,9,67.44,67.44,0,0,1,23.86,24.1A65.67,65.67,0,0,1,766.93,337a64.94,64.94,0,0,1-9,33.85A68,68,0,0,1,681,401a63.44,63.44,0,0,1-16.74-7.62v59.46Zm65.2-78.19a37.89,37.89,0,0,0,19.36-5A36.84,36.84,0,0,0,733.2,337a37.94,37.94,0,0,0-5-19.36,36,36,0,0,0-13.62-13.49,38.72,38.72,0,0,0-19.36-4.87,46.51,46.51,0,0,0-17.36,3.13,36.62,36.62,0,0,0-13.62,9.36v50.72a38.16,38.16,0,0,0,13.62,9A46.2,46.2,0,0,0,695.23,374.68Z"/><path class="cls-2" d="M792.66,401.91V271.75h34.22v14.49a41.32,41.32,0,0,1,34.73-17.49q9.5.25,14.24,3v30a35.58,35.58,0,0,0-8.25-2.62,48.49,48.49,0,0,0-9.24-.88,34.55,34.55,0,0,0-18.24,5,36.56,36.56,0,0,0-13.24,14.24v84.44Z"/><path class="cls-2" d="M957.79,404.4a69.69,69.69,0,0,1-35.23-9,68.32,68.32,0,0,1-25-24.23A64.72,64.72,0,0,1,888.34,337a66,66,0,0,1,9.12-34.35,66.68,66.68,0,0,1,25-24.35,73.92,73.92,0,0,1,70.7,0,66.82,66.82,0,0,1,25,24.35,66.14,66.14,0,0,1,9.11,34.35,65.46,65.46,0,0,1-9.11,34.23,67.38,67.38,0,0,1-24.86,24.23Q977.53,404.41,957.79,404.4Zm0-29.72a34.37,34.37,0,0,0,18.36-5,37.17,37.17,0,0,0,13-13.61,40.18,40.18,0,0,0,0-38.35,38.56,38.56,0,0,0-13-13.62,35.26,35.26,0,0,0-36.6,0,37.06,37.06,0,0,0-13,13.62,41.08,41.08,0,0,0,0,38.35,35.78,35.78,0,0,0,13,13.61A34.52,34.52,0,0,0,957.79,374.68Z"/></g></g></svg>